# xmcd CD database file
#
# Track frame offsets:
#	150
#	18773
#	30597
#	51135
#	72840
#	86212
#	107580
#	120409
#	136823
#	153754
#	170424
#	188069
#	207094
#	216976
#	238031
#
# Disc length: 3482 seconds
#
# Revision: 1
# Processed by: cddbd v1.5.2PL0 Copyright (c) Steve Scherf et al.
# Submitted via: CDex 1.51
#
DISCID=c00d980f
DTITLE=Glee - STTW-3222
DYEAR=1900
DGENRE=Blues
TTITLE0=Glee - Jump
TTITLE1=Glee - Imagine
TTITLE2=Glee - Lean On Me
TTITLE3=Glee - Dream On
TTITLE4=Glee - To Sir With Love
TTITLE5=Glee - Total Eclipse Of The Heart
TTITLE6=Glee - Beth
TTITLE7=Glee - Safety Dance
TTITLE8=Glee - Hello,Goodbye
TTITLE9=Glee - Can't Fight The feeling
TTITLE10=Glee - Alone
TTITLE11=Glee - Leaving On A Jet Plane
TTITLE12=Glee - Sweet Caroline
TTITLE13=Glee - Endless Love
TTITLE14=Glee - Bad Romance
EXTD=
EXTT0=
EXTT1=
EXTT2=
EXTT3=
EXTT4=
EXTT5=
EXTT6=
EXTT7=
EXTT8=
EXTT9=
EXTT10=
EXTT11=
EXTT12=
EXTT13=
EXTT14=
PLAYORDER=
